<?xml version="1.0" encoding="UTF-8"?>
<!-- Generator: Adobe Illustrator 26.0.1, SVG Export Plug-In . SVG Version: 6.00 Build 0)  -->
<svg version="1.1" id="Layer_1" xmlns="http://www.w3.org/2000/svg" xmlns:xlink="http://www.w3.org/1999/xlink" x="0px" y="0px" viewBox="0 0 976 976" style="scroll-behavior: auto !important;" xml:space="preserve">
<style type="text/css">
	.st0{fill:#FFFFFF;}
</style>
<circle class="st0" cx="488" cy="488" r="427"/>
<g>
	<path d="M193.7,408.8c-7.1,10.9-10.4,23.3-13.4,35.9c-5.2,22-6.7,44.1-2.6,66.4c2.1,11.4,5,22.8,11.6,32.8c1.6,2.4,3.4,2.9,4.8,1.4   c0.9-0.9,0.8-4,0-5.3c-11-17.4-14-36.9-13.6-56.7c0.4-25.1,6.1-49.4,17.7-71.9c1.1-2.2,1.5-4.8,2.2-7.1c-0.6-0.4-1.2-0.7-1.8-1.1   C197,405,195,406.7,193.7,408.8z"/>
	<path d="M223.4,397.2c0.2,0.7,0.4,1.5,0.5,2.2c2.2-0.3,5,0.2,6.6-1c9-6.9,17.8-14.1,26.5-21.4c11.3-9.6,22.4-19.4,33.4-29.3   c9.6-8.6,19.2-17.2,30.9-22.9c13.7-6.6,28.5-7.5,43.4-7.9c8.9-0.3,17.8,0,26.7,0c0-0.6,0-1.3,0.1-1.9c-1.8-0.3-3.6-0.8-5.5-0.9   c-16.6-0.3-33.3-1-49.9-0.5c-17.2,0.5-33.7,4.4-47.1,16.1c-9.4,8.2-18.4,17.1-27.1,26.1C248.8,369.3,236.2,383.4,223.4,397.2z"/>
	<path d="M424.6,730.3c-1.4,4.4,0.6,5.6,4.3,6.2c1.2,0.2,2.4,0.5,3.6,0.5c11.5,0.5,23,1.1,34.5,1.5c7.6,0.2,15.3,0,23.1,0   c0-5.8,0-10.8,0-16.2c-21.8-0.8-43-1.7-64.6-2.5C425.2,723.8,425.5,727.2,424.6,730.3z"/>
	<path d="M333.9,741.1c-8.1-17.2-15.5-34.7-22.5-52.4c-5.4-13.6-9.8-27.6-14.3-41.5c-2.4-7.4-3.8-15.2-6-22.7c-1-3.3-2.3-7-7.9-7.1   c1.9,8,3.3,15.7,5.6,23.1c5.6,18,11.5,35.9,17.5,53.7c5,14.7,10.6,29.1,19.9,41.9c7,9.5,13.3,19.5,19.9,29.3   c1.4,0.9,2.8,1.9,5.2,3.6c-1.4-2.4-2-3.6-2.8-4.8C343.5,756.4,337.7,749.3,333.9,741.1z"/>
	<path d="M488,10.1c-263.9,0-477.9,214-477.9,477.9s214,477.9,477.9,477.9S965.9,752,965.9,488S751.9,10.1,488,10.1z M636.6,797.3   c-3.6,1.2-7,3.1-10,5.4c-15.1,11.5-32.8,17-50.8,21.3c-9.4,2.3-19.2,3.9-28.9,4.1c-31.7,0.6-63.4,0.5-95.2,0.6   c-15.9,0-31.7-0.9-47.2-5.6c-7.2-2.2-7.7-3.1-5-9.8c1.3-3.3,2-7.2,1.6-10.6c-1.3-10.7-3.1-21.4-5.1-32c-0.5-2.9-2.2-5.5-3.4-8.2   c-0.5,0.2-1,0.3-1.5,0.5c0.8,4.3,1.6,8.6,2.3,12.9c1.6,10,3.3,19.9,4.3,29.9c0.2,2.1-1.4,5.7-3.1,6.5s-5.3-0.5-6.8-2.1   c-14.1-14.5-28-29.2-42-43.9c-0.2-0.2-0.1-0.7-0.2-1l0,0c-4.7-4.7-9.8-9.1-13.9-14.3c-15.7-19.6-31.3-39.4-46.7-59.3   c-11.8-15.2-16.9-33.1-20.2-51.6c-2-11.3-4.2-22.7-6.2-34c-0.2-1-0.1-2.1-0.2-4.9c73.9,33.2,150.1,52.2,231.1,49.8   c0,23.2,0,45.2,0,68.1c2.1,0,3.8,0.1,5.4,0c16.4-0.7,32.8-1.2,49.2-2c27.1-1.3,53.9-5.1,79.9-12.8c9-2.6,17.6-6.8,26.1-10.8   c2.4-1.1,3.5-4.6,5.5-6.9c3.3-3.8,6.4-7.9,10.3-11.1c19.2-15.8,33.1-34.9,39.7-59.1c0.8-2.8,2-5.6,3.5-8.1c0.9-1.5,2.8-2.3,4.3-3.4   c0.8,0.5,1.5,0.9,2.3,1.4c-1.5,5.4-2.3,11.1-4.6,16.1c-3.8,8.2-7.5,16.8-13.2,23.7c-7.9,9.5-11.7,20.5-15.1,31.8   c-10.6,34.7-21.5,69.3-31.8,104.1C648.7,790,644.4,794.8,636.6,797.3z M576.7,155.2c57.2,21.1,92.8,60.5,106.6,119.6   c-6.6,2.1-8.7,0.9-11-4.3c-9.7-22.3-19.8-44.6-36.2-62.8c-11.4-12.7-24.7-23.6-37.8-34.6c-5.3-4.5-12.2-7.3-18.3-10.8   C576.3,160,576.3,160,576.7,155.2z M700.6,589.7c2.4-22.1,5.5-44.1,6.9-66.2c1.4-22.3,0.9-44.8,1.5-67.2   c0.6-22.4,1.4-44.8,2.2-67.2c0.7,0,1.3,0.1,2,0.1C720.8,401.6,710.9,579.3,700.6,589.7z M770,386.5c-9.6-4.5-19.3-9-29.8-13.9   c0,3.6-0.3,5.7,0.1,7.7c0.3,1.9,0.7,4.6,2,5.3c9.1,4.8,18.5,9.1,27.7,13.5c0,7.7,0,15.4,0,23.1c-0.2,1.9-0.8,3.8-0.7,5.6   c0.5,22.1-1.9,43.9-5.3,65.7c-5.2,33.2-9.6,66.6-14.9,99.8c-3.6,22.9-7.6,45.7-12,68.4c-2.9,15.3-7.6,16.5-22.1,18.2   c-1.7,0.2-3.5,0-6.3,0c-3.1,37.4-22,66.5-48.8,91.5c3.6-8.2,7.6-16.1,10.6-24.3c9.7-26.5,17.9-53.6,23.1-81.4   c0.6-3.2,2.9-6.1,4.7-9c10.1-16.9,16.1-35.5,22.2-54c4.5-13.6,5.6-27.5,7.6-41.4c-0.4-0.1-0.9-0.2-1.3-0.3c-0.7,3.4-1.4,6.8-2,10.3   c-1,5.5-1.8,11-2.7,16.5c-1,5.7-4.6,10.1-7.9,9.9c-3.8-0.2-6.6-4.1-6-10.7c0.8-7.9,3.1-15.7,4.1-23.6c1.8-14.2,3.4-28.4,4.5-42.6   c1.5-20.9,2.4-41.8,3.5-62.7c0.3-6.3,0.4-12.6,0.4-18.9c0.3-24.5,0.7-49,0.8-73.5c0-9.2-1.8-18.6-0.9-27.7   c1.6-17.1-4.6-32.3-10.1-47.5c-13.4-37.1-31.9-71.3-58.4-101.1c-13.2-14.8-29.1-24.9-46.1-33.8c-14.4-7.5-28.9-15.1-45.1-17.9   c-27.2-4.7-54.4-9.6-82.2-5.8c-21.6,2.9-42.1,10.1-62.3,17.9c-16,6.2-32,12.4-47.4,19.7c-8.3,4-15.8,10-23.1,15.8   c-16.4,12.9-32.2,26.4-45.2,43c-14.8,19-24,40.5-30.5,63.3c-1.7,5.8-3.6,11.6-5.4,17.3c0.4,0.4,0.8,0.8,1.1,1.2   c1.3-1.3,3.3-2.4,3.9-4c3.4-8.4,6.4-17,9.7-25.4c8.3-21.1,19.4-40.5,35.8-56.4c30.6-29.7,65.6-51.8,107-63.3   c20-5.6,40-10.9,60-16.3c6.9-1.9,7.4-1,6.9,6.4c-0.3,5.2,0.6,10.5,0.6,15.7c0,66.8,0.1,133.6,0,200.4c0,20-0.6,39.9-0.7,59.9   c0,3.4-0.9,4.6-4.5,4.6c-24.3,0.3-48.7,0.7-73,1.2c-9.6,0.2-19.2,1-28.8,0.7c-16.4-0.6-32.7-2-49.1-2.9c-8.9-0.5-17.9-0.2-26.7-1.2   c-19.2-2.2-38.5-4.2-57.5-7.8c-12.9-2.4-25.3-7.3-37.9-11.4c-2.5-0.8-4.4-3.1-7.6-5.5c0.6,7.7,0.5,14.5,1.7,21.2   c1.3,7.5,4,14.7,5.4,22.1c2.1,10.8,3.8,21.6,5.4,32.5c2.1,14.1,3.7,28.3,5.8,42.5c1.7,11.3,4,22.6,6,34.1c-1.6,0.3-2.8,0.4-3.9,0.7   c-1.9,0.6-3.7,1.4-5.5,2.1c1,2,1.5,4.6,3,5.8c9.3,6.8,18.1,14.7,28.3,19.5c34.1,16.1,70.1,26.6,107.8,30.7   c17.3,1.9,34.7,3.1,52.1,4.1c17.6,1,35.3,1.4,52.9,2.1c6.5,0.3,12.9,0.8,19.3,1.2c5.1,0.4,7.9,3.7,7.3,8.7   c-0.3,2.2-0.6,4.5-0.8,6.7c-0.1,2.2,0,4.5,0,6.4c-8.1,0-15.8,0.3-23.4-0.1c-12-0.6-24-1.5-36.1-2.4c-28.5-2-56.6-6.1-83.6-15.3   c-30.7-10.5-61.2-21.6-91.6-33c-8.4-3.2-16.6-7.6-24.1-12.6c-6.9-4.6-14.3-4.7-21.8-4.9c-3.5-0.1-5.7-1.2-7.7-4.2   c-7.1-10.5-15.5-20.4-21.4-31.5c-4-7.6-5.5-16.7-6.9-25.4c-1.3-8-1.1-16.4-1.5-24.5c0-0.6-0.4-1.3-0.7-1.9c0-10.5,0-21,0-31.6   c0.2-0.4,0.7-0.9,0.7-1.3c0.1-19.9,10.3-36.3,19.4-52.9c6.3-11.6,14.2-22.3,20.6-33.9c8.6-15.4,16.2-31.3,28.8-44.1   c0.7-0.7,1.4-1.7,1.6-2.6c1.3-5.3,2.5-10.7,3.8-16.1c6.2-25.5,16.7-49,30.1-71.6c16.4-27.7,38.7-48.9,66.4-64.3   c17.9-9.9,36.4-18.8,54.9-27.5c25.8-12,52.4-21.4,81-23.4c11.3-0.8,22.8-0.8,34.2-0.1c8.7,0.5,17.3,3.3,26.1,4.2   c16.8,1.6,33.2,4.8,48.6,11.5c32,13.9,61.1,32,85,58.1c17.7,19.4,33.1,40.5,41.5,65.3c8.4,24.9,13.6,50.8,20.4,76.2   c0.6,2.3,2.2,4.7,4,6.1c2.6,2,5.8,3.1,8.8,4.6c12.3,6.3,21.7,15.1,24.1,29.5C770,379.5,770,383,770,386.5z M328.7,597.6   c-8.5-1.8-17-4-25.4-6.2c-3.7-1-7.3-2.5-10.9-3.7c-7.1-2.3-10.7-7.5-11.7-14.6c-1.7-11.5-3.3-23.1-4.8-34.6   c-1.6-11.9-3.4-23.8-4.6-35.7c-1.4-13.7-2.3-27.5-3.3-41.2c-0.6-7.8-0.9-15.7-1.4-23.5c-0.3-4.2,0.9-6.6,5.7-6.4   c14.1,2.2,28.2,4.2,42.2,6.8c1.6,0.3,3.7,3.3,4,5.3c2.4,15.1,4.7,30.3,6.4,45.6c2,17.6,3.3,35.4,5,53.1c1.6,17.2,3.4,34.3,5,51.5   C335.3,598.3,331.5,598.2,328.7,597.6z M241.7,537.2c-0.5,0-0.9,0.1-1.4,0.1c-5.3-37-7.2-74.3-9-111.6c1-0.1,2-0.3,3-0.4   c0.8,5.5,2,10.9,2.3,16.4c1.3,21.6,2.2,43.2,3.4,64.9C240.5,516.8,241.1,527,241.7,537.2z"/>
</g>
</svg>